<?xml version="1.0" encoding="UTF-8"?>
<!DOCTYPE svg PUBLIC "-//W3C//DTD SVG 1.1//EN" "http://www.w3.org/Graphics/SVG/1.1/DTD/svg11.dtd">
<svg xmlns="http://www.w3.org/2000/svg" version="1.1" width="512px" height="512px" style="shape-rendering:geometricPrecision; text-rendering:geometricPrecision; image-rendering:optimizeQuality; fill-rule:evenodd; clip-rule:evenodd" xmlns:xlink="http://www.w3.org/1999/xlink">
<g><path style="opacity:0.974" fill="#000002" d="M 511.5,61.5 C 511.5,166.833 511.5,272.167 511.5,377.5C 506.91,391.255 497.577,400.088 483.5,404C 474.84,404.5 466.173,404.666 457.5,404.5C 459.952,420.163 462.452,435.83 465,451.5C 466.529,466.622 459.863,475.289 445,477.5C 441.358,477.287 437.858,476.453 434.5,475C 414.572,464.537 394.572,454.37 374.5,444.5C 354.183,453.969 334.183,464.136 314.5,475C 296.475,480.949 286.142,474.615 283.5,456C 286.006,438.799 288.673,421.632 291.5,404.5C 203.499,404.667 115.499,404.5 27.5,404C 13.4234,400.088 4.09008,391.255 -0.5,377.5C -0.5,271.833 -0.5,166.167 -0.5,60.5C 4.28464,45.8882 14.2846,37.0548 29.5,34C 180.167,33.3333 330.833,33.3333 481.5,34C 497.154,37.1595 507.154,46.3262 511.5,61.5 Z M 35.5,64.5 C 183.223,64.0046 330.889,64.5046 478.5,66C 479,66.5 479.5,67 480,67.5C 480.831,168.873 480.664,270.207 479.5,371.5C 478.975,372.192 478.308,372.692 477.5,373C 468.921,373.816 460.421,373.649 452,372.5C 450.488,361.763 448.655,351.096 446.5,340.5C 471.103,306.454 473.603,270.787 454,233.5C 428.891,196.786 394.391,182.953 350.5,192C 307.208,206.044 284.208,235.877 281.5,281.5C 281.88,303.481 288.88,322.981 302.5,340C 300.558,350.815 298.558,361.648 296.5,372.5C 208.462,373.831 120.462,373.831 32.5,372.5C 31.8076,371.975 31.3076,371.308 31,370.5C 30.3333,269.5 30.3333,168.5 31,67.5C 32.4087,66.2189 33.9087,65.2189 35.5,64.5 Z M 365.5,220.5 C 396.995,218.652 419.161,231.985 432,260.5C 441.462,295.396 430.296,321.23 398.5,338C 362.677,349.507 335.844,338.674 318,305.5C 307.558,274.499 315.392,249.332 341.5,230C 349.202,225.718 357.202,222.551 365.5,220.5 Z M 330.5,363.5 C 359.667,378.146 388.834,378.146 418,363.5C 422.378,387.099 426.544,410.765 430.5,434.5C 430.167,435.167 429.833,435.833 429.5,436.5C 417.167,430 404.833,423.5 392.5,417C 381.29,412.758 369.957,412.425 358.5,416C 345.5,422.833 332.5,429.667 319.5,436.5C 319.167,435.667 318.833,434.833 318.5,434C 322.453,410.445 326.453,386.945 330.5,363.5 Z"/></g>
<g><path style="opacity:0.977" fill="#000001" d="M 72.5,121.5 C 190.834,121.333 309.167,121.5 427.5,122C 437.791,127.614 440.291,135.78 435,146.5C 432.559,148.969 429.726,150.802 426.5,152C 308.833,152.667 191.167,152.667 73.5,152C 62.2545,146.932 59.4212,138.766 65,127.5C 67.1141,124.879 69.6141,122.879 72.5,121.5 Z"/></g>
<g><path style="opacity:0.973" fill="#000001" d="M 73.5,203.5 C 124.834,203.333 176.168,203.5 227.5,204C 239.502,209.34 242.336,217.84 236,229.5C 233.92,231.123 231.754,232.623 229.5,234C 177.167,234.667 124.833,234.667 72.5,234C 62.211,228.343 59.711,220.177 65,209.5C 67.6713,207.098 70.5046,205.098 73.5,203.5 Z"/></g>
</svg>
